<?xml version="1.0" standalone="no"?>
<!DOCTYPE svg PUBLIC "-//W3C//DTD SVG 20010904//EN"
 "http://www.w3.org/TR/2001/REC-SVG-20010904/DTD/svg10.dtd">
<svg version="1.0" xmlns="http://www.w3.org/2000/svg"
 width="711.000000pt" height="139.000000pt" viewBox="0 0 711.000000 139.000000"
 preserveAspectRatio="xMidYMid meet">

<g transform="translate(0.000000,139.000000) scale(0.100000,-0.100000)"
fill="#ffffff" stroke="none">
<path d="M690 1360 c-45 -8 -99 -37 -107 -56 -7 -18 160 -202 191 -210 34 -8
76 13 89 45 10 24 16 27 30 20 10 -6 17 -22 17 -41 0 -25 3 -29 12 -20 7 7 12
36 12 64 2 126 -117 222 -244 198z"/>
<path d="M496 1245 c-10 -8 -43 -20 -72 -26 -30 -7 -54 -17 -54 -24 0 -17 291
-346 302 -343 6 2 16 21 23 43 8 21 23 52 35 67 18 25 19 32 8 46 -16 21 -220
252 -222 252 0 0 -9 -7 -20 -15z"/>
<path d="M894 1005 c-8 -21 2 -45 19 -45 21 0 38 25 31 44 -8 20 -43 21 -50 1z"/>
<path d="M202 912 c-18 -14 -20 -20 -10 -30 31 -31 86 0 58 33 -16 19 -20 19
-48 -3z"/>
<path d="M290 863 c1 -52 43 -83 112 -83 l43 0 -34 17 c-18 9 -44 34 -58 55
-31 46 -63 52 -63 11z"/>
<path d="M4467 850 c-86 -15 -171 -80 -204 -157 -29 -70 -7 -190 43 -235 31
-28 90 -48 138 -48 83 0 127 -43 74 -71 -30 -16 -147 -5 -202 20 l-45 19 -6
-51 c-4 -29 -7 -74 -8 -102 l-2 -49 60 -25 c81 -33 203 -40 275 -16 109 36
173 127 173 245 0 127 -66 188 -204 190 -71 0 -112 26 -85 53 26 26 84 32 163
16 l72 -15 6 86 c4 47 7 91 8 99 4 30 -163 56 -256 41z"/>
<path d="M5936 808 c-3 -29 -6 -86 -6 -127 l0 -74 79 7 79 7 6 -168 c3 -92 9
-204 12 -247 l6 -79 105 6 c58 3 107 7 108 9 2 2 6 97 9 213 9 296 2 271 87
277 38 3 73 8 77 12 3 4 8 54 10 112 l4 104 -284 0 -285 0 -7 -52z"/>
<path d="M1648 659 l-3 -194 -55 0 -55 0 3 105 c1 58 5 137 8 176 l6 71 -38 6
c-22 4 -76 7 -121 7 l-83 0 0 -102 c0 -57 -3 -214 -7 -350 l-6 -248 111 0 112
0 0 110 0 110 60 0 60 0 0 -114 0 -114 123 5 c67 3 123 7 125 8 6 5 -12 685
-19 696 -4 8 -46 14 -113 17 l-106 5 -2 -194z"/>
<path d="M6738 831 c-59 -3 -111 -10 -117 -16 -12 -13 -204 -656 -197 -663 7
-7 239 -30 249 -25 4 2 7 12 7 21 0 9 5 34 11 55 l10 37 58 0 59 0 13 -56 c8
-30 17 -56 22 -56 4 -1 59 5 122 12 88 9 115 16 115 27 0 10 -141 507 -186
656 -4 11 -14 16 -32 15 -15 -1 -75 -4 -134 -7z m41 -346 c7 -33 15 -68 17
-77 5 -15 -1 -18 -36 -18 -39 0 -42 2 -37 23 3 12 11 50 18 84 7 35 16 60 19
55 4 -4 12 -34 19 -67z"/>
<path d="M670 778 c11 -18 20 -45 20 -59 0 -35 -39 -90 -76 -109 -16 -8 -41
-27 -56 -43 -27 -27 -71 -36 -83 -16 -5 7 -14 4 -26 -7 -26 -24 -78 -22 -99 3
-12 15 -24 19 -47 16 -25 -4 -38 1 -57 20 -14 15 -26 34 -26 44 0 10 -13 26
-29 35 l-30 16 -40 -52 c-99 -129 -134 -306 -91 -458 l11 -38 150 0 149 0 -21
42 c-64 126 21 282 160 296 167 16 286 -166 201 -306 l-20 -32 179 0 179 0 11
47 c7 26 12 84 13 129 0 148 -47 261 -152 367 -63 62 -140 109 -218 132 l-23
7 21 -34z"/>
<path d="M2756 419 c-4 -182 -6 -333 -4 -335 2 -2 82 3 178 11 96 8 183 15
192 15 21 0 25 14 33 123 l7 87 -96 0 c-70 0 -96 3 -96 13 1 6 9 103 18 215
l18 202 -122 0 -121 0 -7 -331z"/>
<path d="M4961 701 c-21 -6 -32 -33 -106 -281 -72 -239 -80 -276 -66 -281 9
-4 57 -10 108 -14 l91 -7 7 46 7 46 53 0 53 0 11 -45 c13 -51 7 -50 133 -33
54 7 87 16 85 22 -2 6 -39 134 -82 284 l-78 272 -96 -1 c-53 -1 -107 -4 -120
-8z m118 -300 c6 -30 10 -56 7 -58 -2 -2 -17 -3 -33 -1 l-29 3 15 68 c15 75
22 73 40 -12z"/>
<path d="M5463 703 c-28 -4 -33 -8 -33 -31 0 -47 -19 -415 -25 -484 l-6 -68
53 0 c29 0 76 3 104 6 l51 6 7 179 c7 184 16 233 45 249 59 31 72 -108 35
-371 -6 -46 -6 -46 26 -53 18 -3 70 -6 115 -6 l82 0 7 104 c13 185 -10 354
-56 418 -51 72 -155 79 -225 15 l-23 -20 0 31 0 32 -62 -2 c-35 0 -78 -3 -95
-5z"/>
<path d="M3449 667 c-156 -58 -244 -213 -218 -381 18 -110 88 -204 188 -253
74 -37 190 -39 263 -6 258 117 273 483 26 618 -44 24 -67 30 -138 32 -54 2
-98 -2 -121 -10z m152 -222 c117 -61 72 -245 -60 -247 -116 -1 -177 135 -99
220 41 44 105 55 159 27z"/>
<path d="M2387 423 c-4 -136 -4 -249 -2 -252 6 -5 284 14 289 20 2 2 7 37 10
77 l7 72 -72 0 -72 0 7 88 c3 48 9 122 13 165 l6 77 -90 0 -90 0 -6 -247z"/>
<path d="M2103 621 c-119 -30 -187 -193 -143 -345 33 -119 169 -176 281 -120
23 12 27 21 34 79 4 37 5 69 2 71 -3 3 -23 -4 -46 -15 -22 -12 -52 -21 -66
-21 -24 0 -65 31 -65 49 0 9 128 31 179 31 44 0 55 21 47 88 -16 139 -105 212
-223 183z m83 -157 c21 -31 12 -40 -43 -49 -39 -6 -43 -5 -43 13 0 19 42 62
61 62 5 0 16 -11 25 -26z"/>
</g>
</svg>
