<?xml version="1.0" encoding="utf-8"?>
<!-- Generator: Adobe Illustrator 25.2.1, SVG Export Plug-In . SVG Version: 6.00 Build 0)  -->
<svg version="1.1" id="Layer_1" xmlns="http://www.w3.org/2000/svg" xmlns:xlink="http://www.w3.org/1999/xlink" x="0px" y="0px"
	 viewBox="0 0 555 110" style="enable-background:new 0 0 555 110;" xml:space="preserve">
<style type="text/css">
	.st0{fill:#675CE0;}
</style>
<g>
	<path class="st0" d="M278.9,106c7.4-8.8,5-19.3-1-24.8c-6.5-6-16.5-6.1-23.2-0.3c-6.1,5.3-9.1,15.9-1.5,25.1
		c-0.3,0.4-0.8,0.2-1.1,0.2c-7.9,0-15.8,0-23.6,0c-1.1,0-1.6-0.2-2-1.3c-5.2-17-1.9-32.1,10.1-45.3c0.6-0.7,1.1-1,1.9-0.1
		c0.8,0.8,1.8,1.2,2.9,1.3c0.9,0.1,1.3,0.2,1.1,1.4c-0.4,2.1,0.6,4.2,2.4,5.4c1.7,1.3,4,1.5,5.9,0.5c0.9-0.4,1.2-0.5,1.7,0.5
		c1.4,2.8,4.8,4,7.6,2.6c0.7-0.4,1.3-0.8,1.9-1.5c0.6-0.7,0.9-0.8,1.8-0.3c2.6,1.7,6.2,1,7.9-1.7c0.3-0.4,0.5-0.9,0.7-1.4
		c0.2-0.6,0.4-1.1,1.2-1.3c3.9-0.4,7.2-3.3,8.1-7.2c1.1-4.2-0.3-7.6-3.5-10.4c-0.1-0.1-0.2-0.3-0.3-0.4c3,0.5,5.9,1.5,8.7,2.8
		c15.9,7.6,24.7,20.1,26.3,37.7c0.5,5.9-0.3,11.9-2.3,17.5c-0.1,0.7-0.8,1.3-1.5,1.2c-9.8,0-19.6,0-29.4,0
		C279.2,106.2,279,106.1,278.9,106L278.9,106z"/>
	<path class="st0" d="M0.8,71.6C1,63.1,1.2,54.5,1.4,46c0.1-2.4,0.1-2.4,2.5-2.3c4.8,0.2,9.7,0.5,14.5,0.6c1.6,0.1,2.1,0.5,2.1,2.2
		c-0.4,8.3-0.7,16.6-1.1,24.9c-0.1,1.4,0.4,1.7,1.7,1.7c1.9-0.1,3.7-0.1,5.6,0c1.2,0.1,1.5-0.4,1.5-1.5c0-9,0-18,0-27
		c0-2.7,0-2.1,2.1-2.1c4.9,0.1,9.8,0.3,14.7,0.3c1.1,0,1.4,0.4,1.4,1.5C46.6,54.4,46.8,64.7,47,75c0.2,7.6,0.3,15.3,0.6,23
		c0,1.2-0.3,1.7-1.5,1.7c-5.7,0.2-11.5,0.5-17.2,0.8c-1.2,0.1-1.2-0.6-1.2-1.3c-0.1-4.7-0.1-9.3-0.1-14c0-2.9,0-2.9-3-2.9
		c-1.6,0-3.2,0.1-4.8,0c-1,0-1.4,0.3-1.4,1.3c-0.1,4.8-0.4,9.6-0.5,14.4c0,1.2-0.3,1.7-1.7,1.7c-4.9-0.1-9.8-0.1-14.7,0
		c-1.2,0-1.6-0.3-1.6-1.6C0.2,89.3,0.4,80.5,0.8,71.6L0.8,71.6z"/>
	<path class="st0" d="M528.8,71.7h-0.3c-0.9,4-1.7,8.1-2.6,12.1c-0.2,0.8,0.1,1,0.8,0.9c1.3,0,2.7,0,4,0c0.7,0,1-0.3,0.8-1
		C530.5,79.7,529.7,75.6,528.8,71.7L528.8,71.7z M536.3,105.9c-0.8,0.3-1.1-0.3-1.2-1c-0.6-2.2-1.2-4.4-1.7-6.6
		c-0.2-0.9-0.6-1.3-1.6-1.3c-2.2,0.1-4.4,0.1-6.5,0c-0.9,0-1.3,0.2-1.5,1.2c-0.4,2.1-1,4.2-1.4,6.4c-0.2,1.1-0.5,1.5-1.8,1.4
		c-5.8-0.7-11.6-1.2-17.5-1.7c-1.6-0.1-1.4-0.9-1-2c3.9-12.9,7.7-25.8,11.6-38.6c1.1-3.7,2.3-7.3,3.2-11c0.2-1.2,1.2-2,2.4-1.9
		c5.3-0.2,10.6-0.5,15.9-0.7h1.4c3-0.2,3-0.2,3.8,2.7c4.7,16.3,9.5,32.7,14.2,49c0.4,1.5,0.2,1.9-1.4,2
		C547.8,104.4,542.2,105.2,536.3,105.9L536.3,105.9z"/>
	<path class="st0" d="M178.3,73.6c-5.7,0-10.4,4.6-10.4,10.3c0,5.8,4.6,10.5,10.4,10.5s10.5-4.6,10.5-10.4
		C188.8,78.2,184.1,73.5,178.3,73.6C178.3,73.6,178.3,73.6,178.3,73.6L178.3,73.6z M206.2,82.5c0,15.8-12.1,27.8-27.4,27.5
		c-11.8-0.2-22-8.9-24.9-21c-3.5-14.7,5.6-29.4,20.2-32.8c0.2-0.1,0.5-0.1,0.7-0.2c13.6-2.8,27.6,6.4,30.7,20.3
		C205.9,78.4,206.2,80.4,206.2,82.5L206.2,82.5z"/>
	<path class="st0" d="M334,85.4c4.5,2.6,9.5,4,14.7,4.1c1.6,0.1,3.2-0.1,4.7-0.6c1.1-0.3,1.9-1.2,1.9-2.3c0-1.2-0.9-1.8-1.9-2.2
		c-1.6-0.7-3.4-0.9-5.2-0.8c-14.1,0.7-19.2-13.7-14.1-23.8c3.2-6.4,8.8-9.8,15.6-11c6.3-1.1,12.8-0.5,18.9,1.8
		c0.9,0.1,1.5,1,1.4,1.9c0,0.1,0,0.1,0,0.2c-0.5,4.3-0.9,8.7-1.2,13c-0.1,1-0.3,1.4-1.5,1c-4.5-1.6-9.3-2.1-14-1.4
		c-2.4,0.4-3.7,1.3-3.7,2.7s1.1,2.1,3.6,2.6c2,0.2,4,0.3,6,0.2c8.2,0.3,13.4,5.3,13.9,13.4c0.5,7.4-1.9,13.6-8.1,18
		c-4.8,3.4-10.3,4.5-16.1,4.3c-4.8-0.2-9.1-1.9-13.5-3.7c-3.1-1.2-3.1-1.3-2.7-4.6C333,94,333.5,89.8,334,85.4L334,85.4z"/>
	<path class="st0" d="M486.8,48.3c7,0,14.1,0,21.1,0c1.2,0,1.5,0.4,1.5,1.5c-0.2,4.8-0.3,9.6-0.4,14.4c0,1.3-0.4,1.8-1.8,1.8
		c-3.1,0-6.2,0.2-9.2,0.3c-1,0-1.3,0.3-1.4,1.4c-0.4,10.2-0.8,20.4-1.2,30.6c-0.1,1.8-0.2,3.6-0.2,5.4c0,0.8-0.2,1.1-1.1,1.2
		c-5.1,0.2-10.2,0.5-15.3,0.8c-1.1,0.1-1.2-0.4-1.2-1.3c-0.4-11.4-0.9-22.8-1.3-34.3c0-0.5-0.1-1-0.1-1.4c0-1.1-0.5-1.4-1.6-1.3
		c-3.2,0.3-6.4,0.4-9.6,0.6c-1.2,0.1-1.3-0.4-1.2-1.4c0.2-5.6,0.3-11.3,0.4-16.9c0-1.2,0.6-1.2,1.5-1.2
		C472.6,48.4,479.7,48.4,486.8,48.3L486.8,48.3L486.8,48.3z"/>
	<path class="st0" d="M440,64.1c0.8-0.2,1-0.7,1.4-1c4.4-4.6,11.8-4.8,16.4-0.3c0.9,0.9,1.6,1.8,2.2,2.9c1.9,3.4,2.9,7.2,3.2,11.1
		c0.9,9.2,0.5,18.5,0.2,27.7c0,0.9-0.4,0.9-1.1,0.9c-5.4-0.1-10.9-0.3-16.3-0.3c-1.3,0-1.6-0.3-1.4-1.6c1.4-7.9,2.5-15.9,2.1-23.9
		c0-2.2-0.4-4.3-1-6.4c-0.3-0.8-0.6-1.7-1.6-1.8c-0.9-0.1-1.8,0.4-2.3,1.1c-1.4,2.1-2.2,4.6-2.1,7.1c-0.2,6.4-0.3,12.9-0.5,19.3
		c0,2-0.1,3.9-0.2,5.9c0,0.6-0.1,1-0.9,1c-5.1,0.2-10.1,0.4-15.1,0.6c-1,0-0.8-0.6-0.8-1.2c0.3-5.6,0.7-11.2,0.9-16.9
		c0.4-8.7,0.8-17.4,1.1-26.1c0.1-1.4,0.5-1.9,1.9-1.9c4.1-0.1,8.2-0.3,12.3-0.6c1.2-0.1,1.6,0.3,1.5,1.5C440,62.1,440,63.1,440,64.1
		L440,64.1z"/>
	<path class="st0" d="M395.8,77.7c-0.2,0.2-0.2,0.2-0.3,0.2c-0.5,2.4-1,4.8-1.5,7.2c-0.8,3.7-0.8,3.6,2.9,3.6c1.2,0,1.2-0.5,1-1.4
		C397.1,84.1,396.4,81,395.8,77.7L395.8,77.7z M402,106.4c-0.8,0.1-0.8-0.5-1-1c-0.5-1.8-0.9-3.5-1.4-5.2c-0.2-0.9-0.6-1.4-1.6-1.3
		c-1.7,0.1-3.4,0.1-5.1,0c-0.9,0-1.3,0.3-1.5,1.2c-0.4,1.8-0.8,3.5-1.2,5.3c-0.2,0.8-0.5,1.1-1.4,1c-4.9-0.5-9.7-1-14.6-1.5
		c-1.1-0.1-1.3-0.5-1-1.5c4.2-14,8.4-28.1,12.6-42.1c0.3-0.9,0.8-1.1,1.6-1.1c5.4-0.3,10.7-0.6,16.1-0.9c0.9,0,1.3,0.1,1.6,1.1
		c4.1,14.2,8.2,28.5,12.4,42.7c0.1,0.5,0.6,1.1-0.4,1.3L402,106.4L402,106.4z"/>
	<path class="st0" d="M116,77c0.2-8.5,0.4-17,0.6-25.5c0-1.1,0.3-1.4,1.4-1.4c5.6,0.1,11.2,0.1,16.8,0c1.1,0,1.4,0.4,1.4,1.5
		c-0.7,8.6-1.4,17.2-2.1,25.7c-0.2,2-0.3,4-0.5,6c-0.1,1,0.2,1.3,1.2,1.3c4.1,0,8.2,0.1,12.3,0c1.4,0,1.7,0.5,1.6,1.7
		c-0.5,4.6-0.9,9.3-1.3,14c-0.1,0.9-0.4,1.2-1.3,1.2c-9.8,0.7-19.5,1.5-29.3,2.3c-1.2,0.1-1.4-0.3-1.4-1.4
		C115.6,94,115.8,85.5,116,77L116,77z"/>
	<path class="st0" d="M63.8,77.2l7.1-0.7c0.3,0,0.6-0.2,0.7-0.5c0.1-1.5-0.5-2.9-1.5-4c-1.1-0.8-2.6-0.7-3.5,0.2
		C65,73.4,64,75.2,63.8,77.2z M78.9,84.4c-0.4,4-0.9,7.7-1.2,11.4c-0.1,0.7-0.5,1.3-1.2,1.5c-6.9,3.9-18.6,3.7-23.1-7.2
		C50,81.8,50.8,73.6,56,66.2c4.9-6.8,14.8-8.2,20.9-3.1c2.3,2,3.9,4.6,4.6,7.5c0.9,3.3,1.2,6.8,0.7,10.3c-0.1,0.8-0.4,1-1.2,1.1
		c-5.1,0.6-10.2,1.3-15.3,1.9c-1.9,0.2-2,0.5-0.8,2c1.4,2,4,2.9,6.4,2.2C74,87.3,76.6,86,78.9,84.4L78.9,84.4z"/>
	<path class="st0" d="M86.6,77c0-6.2,0.4-12.4,0.4-18.6c0-1.2,0.3-1.6,1.6-1.6c3.9,0.1,7.9,0.1,11.8,0c1.3,0,1.4,0.3,1.3,1.6
		c-0.7,7.8-1.2,15.6-1.9,23.4c-0.1,1,0.3,1.1,1.1,1.1c3,0,6,0,8.9,0c1.2,0,1.4,0.4,1.3,1.5c-0.4,3.2-0.7,6.4-0.9,9.7
		c-0.1,1.1-0.3,1.6-1.6,1.6c-7.1,0.5-14.2,1-21.3,1.7c-1.3,0.1-1.1-0.5-1.1-1.3C86.2,89.6,86.6,83.3,86.6,77
		C86.9,77,86.4,77,86.6,77L86.6,77z"/>
	<path class="st0" d="M280.5,44.3c-0.8,0.1-1.3-0.5-1.8-1.1L257,18.4c-0.8-0.8-1.5-1.6-2.2-2.5c-1-1.4-0.3-2.8,1.4-2.9
		c3.8-0.1,7.5-1.3,10.6-3.5c0.9-0.7,1.2,0,1.6,0.4l13.7,15.5c1.6,1.9,3.3,3.8,5,5.6c0.5,0.5,0.8,0.9,0.1,1.6
		c-2.7,2.8-4.5,6.3-5,10.1c0,0.9-0.7,1.6-1.6,1.5C280.6,44.3,280.5,44.3,280.5,44.3L280.5,44.3z"/>
	<path class="st0" d="M301.4,25.9c-0.2-1.6-0.4-3.2-0.5-4.8c0-2.1-1.2-3.1-3-4.1c-0.1,1-0.4,1.9-0.8,2.8c-2.1,4.2-7.8,5.4-11,2
		c-4.7-4.9-9-10-13.6-15.1c-0.8-0.8-0.1-1.2,0.4-1.7c6-5.7,15.1-6.7,22.1-2.3c5.2,3.1,8.4,8.7,8.5,14.7
		C303.6,20.4,302.2,23.1,301.4,25.9L301.4,25.9z"/>
	<path class="st0" d="M261.5,49.7c-3.9,0.9-7.4,1.1-10.6-0.9c-2.5-1.6-3.3-4.1-3.5-7c0-0.8,0.5-1.1,1-1.4c0.8-0.5,1.8-0.4,2.6,0.2
		c0.7,0.6,1.2,1.3,1.6,2.1C254.4,46.2,257.7,48.7,261.5,49.7L261.5,49.7z"/>
	<path class="st0" d="M238.4,39.5c1.1,0,2.1-0.4,2.9-1.2c1.1-1,2.2-1.3,3.4-0.3c1,0.7,1.4,2,0.9,3.1c-0.5,1.3-1.9,2-3.2,1.8
		C240.9,42.8,239.4,41.4,238.4,39.5L238.4,39.5z"/>
	<path class="st0" d="M301.7,29.5c1.5,0,2.7,1.1,2.7,2.6c0,1.5-1.2,2.7-2.8,2.7c-1.4,0-2.6-1.2-2.6-2.6c0,0,0,0,0-0.1
		c-0.1-1.4,1-2.5,2.4-2.6C301.6,29.5,301.7,29.5,301.7,29.5z"/>
</g>
</svg>
