<svg xmlns="http://www.w3.org/2000/svg" viewBox="0 0 915.27 900"><defs><style>.cls-1{fill:#675ce0;}.cls-2{fill:#99f;}.cls-3{fill:#ccf;}.cls-4{fill:#756ce4;}.cls-5{fill:#847ce9;}.cls-6{fill:#928ced;}.cls-7{fill:#a19cf2;}.cls-8{fill:#afacf6;}.cls-9{fill:#bebcfb;}.cls-10{fill:#f96;}.cls-11{fill:#fc9;}.cls-12,.cls-14{fill:#9cf;}.cls-13{fill:#66f;}.cls-14{stroke:#9cf;stroke-miterlimit:10;}.cls-15{fill:#69c;}.cls-16{fill:#cff;}.cls-17{fill:#f66;}.cls-18{fill:#f99;}.cls-19{fill:#69f;}.cls-20{fill:#fff;}</style></defs><g id="Layer_1" data-name="Layer 1"><circle class="cls-1" cx="450" cy="450" r="450"/><path class="cls-2" d="M1360,540c0,220.91-179.08,400-400,400S560,760.92,560,540,739.08,140,960,140,1360,319.08,1360,540Z" transform="translate(-510 -90)"/><path class="cls-3" d="M1089.33,567.25A156.59,156.59,0,1,1,932.76,410.66,156.58,156.58,0,0,1,1089.33,567.25Z" transform="translate(-510 -90)"/></g><g id="Layer_2" data-name="Layer 2"><path class="cls-1" d="M1406,599.87C1376.77,820.1,1188.23,990,960,990c-248.53,0-450-201.47-450-450S711.47,90,960,90c220.81,0,404.48,159,442.69,368.82L1290.61,443.1a50.08,50.08,0,0,1-22.67-10l-87.78-69c-24.76,13.58-51.94,27.16-75.52,40.62-2,1.16-4.22,2.53-6.51,4.09l8.75-1.25a16.09,16.09,0,0,1,2.28-.16c.36,0,.71,0,1.06,0,0,0,0,0,0,0,.28,0,.56,0,.84.08l.34.05a6.61,6.61,0,0,1,.89.15c.34.07.68.15,1,.24s.66.19,1,.31.64.23,1,.36a6.89,6.89,0,0,1,.73.34c.15.06.3.14.44.21l.63.35a.05.05,0,0,1,0,0c.29.16.57.34.84.52h0c.27.18.53.37.79.57a13.27,13.27,0,0,1,1.55,1.35,4.11,4.11,0,0,1,.29.3,6.51,6.51,0,0,1,.51.54c.19.22.37.44.55.67a14.46,14.46,0,0,1,1.17,1.72,73.65,73.65,0,0,0,10.55-2.95,88,88,0,0,0,19.41-10.15,92.84,92.84,0,0,0,16.59-14.54,67.43,67.43,0,0,1-7.13,8.53,87.07,87.07,0,0,1-27.64,19.16,77.3,77.3,0,0,1-10.23,3.54c.12.41.23.84.31,1.27,0,.24.1.49.13.73s.07.48.1.72a16.23,16.23,0,0,1,.09,1.72c0,1.27-.06,2.53-.18,3.77a37,37,0,0,1-.52,3.68l-5.2,13.46c-.31.51-.63,1-1,1.5s-.68,1-1,1.46-.72.95-1.1,1.41-.76.92-1.16,1.36-.8.88-1.22,1.3-.84.85-1.27,1.25-.88.81-1.33,1.2c-.91.77-1.85,1.51-2.82,2.2-.49.35-1,.69-1.49,1a39.65,39.65,0,0,1-3.92,2.23c-.54.27-1.09.53-1.64.77-1.11.49-2.25.93-3.41,1.32-.59.2-1.17.38-1.77.55l-.89.24c-.6.16-1.21.3-1.82.43-1.22.25-2.47.46-3.73.6l-43.45,5c-.65,0-1.29,0-1.94.05-.44,0-.87.05-1.31.09a.17.17,0,0,0-.1,0c-.4,0-.8.06-1.19.11l-.51.06c-.5.06-1,.14-1.48.22s-1,.18-1.53.28l-.2,0c-.52.11-1,.23-1.57.37h0c-.49.12-1,.25-1.46.4l-.25.07c-.44.13-.86.27-1.29.42-.21.06-.42.14-.63.22-.74.26-1.47.55-2.19.86l-.13.05-.92.41-.48.23c-.32.15-.64.3-.95.47-.82.41-1.63.85-2.42,1.33l-12.27,7.36-3.91,2.35-6.47,3.88a18.67,18.67,0,0,0-9.07,16c0,.3,0,.6,0,.89s0,.39,0,.59l.06.65a1.23,1.23,0,0,1,0,.19c0,.22.06.43.1.64s.07.42.11.63a3.88,3.88,0,0,0,.11.49c.06.28.13.56.2.83l0,.11c.08.3.17.59.27.89l1.39,3.17.26.45.82,1.27q.39.54.81,1c.26.32.54.64.82.94l.06.06c.31.33.63.64,1,.94h0q.48.43,1,.84h0l.67.51a18.81,18.81,0,0,0,5.82,2.82c.47.13.94.25,1.42.34a17.76,17.76,0,0,0,2.19.31q.75.06,1.5.06H1053l60.75-7.59a50,50,0,0,1,22,2.18l35.54,11.84a50,50,0,0,0,15.81,2.57h55.78a50,50,0,0,1,15.81,2.57Z" transform="translate(-510 -90)"/><path class="cls-4" d="M956.11,135.81c193.72,0,355.3,137.62,391.53,319.67.65.42-94.79-12.6-94.19-12.12a41.09,41.09,0,0,1-19-8.25c.59.49-74.1-58.11-73.57-57.57-20.81,12.06-43.72,24.13-63.56,36.12-1.71,1-3.55,2.25-5.48,3.62,0,.05,7.57-1,7.61-.93a13.27,13.27,0,0,1,2-.1c.32,0,.62,0,.93.05h0c.25,0,.49,0,.73.08l.3.05a6.53,6.53,0,0,1,.77.14l.88.22c.29.08.58.18.86.28s.56.21.83.33.43.19.64.3l.38.19.55.31s0,0,0,0c.25.14.5.3.73.46h0c.24.16.46.33.69.5a12.87,12.87,0,0,1,1.36,1.19l.25.26c.16.15.3.31.45.48l.48.59a14.21,14.21,0,0,1,1,1.5,65.23,65.23,0,0,0,9.17-2.35,75.36,75.36,0,0,0,16.91-8.34,77.67,77.67,0,0,0,14.48-12.1,57.43,57.43,0,0,1-6,7.49,75.47,75.47,0,0,1-7,6.63,73.52,73.52,0,0,1-16.32,10.37,62.88,62.88,0,0,1-8.65,3.21c.1.36.2.74.27,1.12a4.66,4.66,0,0,1,.12.63c0,.21.07.42.1.63a12.5,12.5,0,0,1,.09,1.51c0,1.11,0,2.21-.11,3.29s-.22,2.16-.41,3.22c0,.08-4.35,11.7-4.3,11.79-.26.45-.53.88-.82,1.31s-.56.87-.86,1.29-.6.83-.92,1.24-.64.81-1,1.19-.68.77-1,1.15-.71.75-1.07,1.1-.74.72-1.12,1.06c-.76.68-1.56,1.33-2.38,1.95-.42.31-.84.61-1.26.89a34.7,34.7,0,0,1-3.32,2c-.45.24-.92.48-1.38.69-.94.44-1.91.84-2.89,1.2-.5.18-1,.35-1.5.5l-.75.22c-.51.15-1,.29-1.55.41-1,.24-2.09.43-3.16.58.15.26-37,4.77-36.82,5-.55,0-1.09,0-1.64.08-.38,0-.74.06-1.12.1a.11.11,0,0,0-.08,0c-.34,0-.68.07-1,.11l-.43.07c-.43.06-.84.13-1.26.21l-1.3.27-.17,0c-.44.1-.89.21-1.33.34h0c-.42.11-.83.23-1.24.37l-.21.07c-.38.12-.73.24-1.1.38l-.53.2c-.62.25-1.25.5-1.86.78l-.11.05c-.26.11-.52.24-.78.37l-.4.2c-.27.14-.55.27-.81.42-.69.37-1.38.77-2,1.19,0,.09-10.43,6.49-10.39,6.58s-3.33,2.07-3.31,2.1-5.51,3.41-5.49,3.46a16.47,16.47,0,0,0-7.61,14.09c0,.27,0,.53,0,.78s0,.34,0,.52l.06.57a.88.88,0,0,1,0,.16,4.68,4.68,0,0,0,.09.56,5.48,5.48,0,0,0,.1.56,3,3,0,0,0,.09.43c.06.24.12.49.18.72l0,.1q.11.39.24.78l1.22,2.78.22.4.72,1.11c.22.32.46.63.7.93s.47.56.71.83l.06,0c.27.29.54.56.83.83h0c.28.25.56.5.86.74h0l.58.45a16.55,16.55,0,0,0,5,2.54c.41.12.82.23,1.23.32a17.49,17.49,0,0,0,1.9.31c.43,0,.86.07,1.29.08.11.26,34.94.52,35,.78s52.34-5.71,52.46-5.31a43.61,43.61,0,0,1,19,2.31c.06.25,30.59,10.65,30.65,10.9a43.8,43.8,0,0,0,13.62,2.52c.08.37,48,.75,48,1.13a43.45,43.45,0,0,1,13.6,2.53c.16,1.08,126.54,59,126.54,60.15C1335.71,796.33,1164.09,952,956.11,952,730.73,952,548,769.27,548,543.89S730.73,135.81,956.11,135.81Z" transform="translate(-510 -90)"/><path class="cls-5" d="M952.22,181.62c166.62,0,306.11,116.2,340.38,270.53,1.29.83-77.51-9.5-76.31-8.53a32.12,32.12,0,0,1-15.4-6.5c1.16,1-60.42-47.25-59.36-46.17-16.88,10.54-35.51,21.11-51.61,31.62-1.39.9-2.88,2-4.45,3.15.07.1,6.4-.71,6.47-.61a12,12,0,0,1,1.69-.05q.39,0,.78.06h0l.62.09.25,0a5.18,5.18,0,0,1,.66.14l.74.2c.25.08.49.16.74.26s.47.18.7.29a5.36,5.36,0,0,1,.54.26l.33.17.47.27,0,0c.22.13.43.27.63.41h0c.2.14.39.29.58.44a11.38,11.38,0,0,1,1.16,1,2.39,2.39,0,0,1,.22.23,5,5,0,0,1,.38.41l.42.5a11.41,11.41,0,0,1,.88,1.3,57,57,0,0,0,7.81-1.76,67,67,0,0,0,26.78-16.19,50.13,50.13,0,0,1-4.84,6.46,65.48,65.48,0,0,1-5.68,5.74,61.6,61.6,0,0,1-13.31,9.09,52.18,52.18,0,0,1-7.07,2.89c.1.31.18.63.25.95s.08.37.11.55.06.36.08.54c.06.41.09.85.11,1.28,0,.95,0,1.89,0,2.82s-.16,1.85-.3,2.76c.11.17-3.51,9.95-3.4,10.12-.21.38-.43.76-.66,1.13s-.46.74-.7,1.1-.49.72-.75,1.07-.52.7-.79,1-.55.66-.84,1-.57.64-.87.95-.6.62-.91.92c-.62.59-1.28,1.16-1.94,1.69-.34.27-.69.54-1,.79a30.56,30.56,0,0,1-2.71,1.75c-.38.21-.76.42-1.14.61-.77.39-1.56.75-2.36,1.07l-1.23.46-.62.2c-.41.14-.84.26-1.26.37a25.4,25.4,0,0,1-2.59.56c.29.52-30.47,4.6-30.2,5.13-.45,0-.9.06-1.35.11s-.61.06-.91.11a.09.09,0,0,0-.07,0c-.28,0-.56.07-.83.12l-.36.06-1,.21-1.06.26-.14,0c-.36.1-.73.21-1.09.33h0l-1,.34-.17.06c-.31.11-.6.23-.9.35s-.29.12-.44.18c-.51.22-1,.45-1.52.7l-.09,0-.64.33-.34.19c-.22.12-.44.23-.66.37-.57.33-1.13.67-1.68,1.05.09.18-8.59,5.61-8.51,5.79s-2.74,1.79-2.72,1.84-4.54,3-4.49,3.05a14.27,14.27,0,0,0-6.16,12.17c0,.22,0,.45,0,.66s0,.3,0,.45l.06.49s0,.09,0,.14,0,.32.08.48l.09.47c0,.13.05.25.09.37s.1.42.16.63a.24.24,0,0,0,0,.08c.06.23.13.44.21.67,0,0,1,2.35,1,2.39l.2.34s.6,1,.61,1c.19.28.39.54.59.8s.4.49.61.72l0,0c.23.25.47.49.71.72h0c.23.22.47.44.72.64h0s.49.39.49.4a14.4,14.4,0,0,0,4.26,2.25,10,10,0,0,0,1,.3,14.57,14.57,0,0,0,1.6.31c.37,0,.73.08,1.1.09.2.52,29.35,1,29.53,1.57.28.79,43.94-3.84,44.17-3a37.34,37.34,0,0,1,16,2.44c.14.5,25.65,9.46,25.76,10a37.63,37.63,0,0,0,11.44,2.47c.16.75,40.15,1.5,40.27,2.26a37,37,0,0,1,11.4,2.48c.32,2.17,105.73,51.75,105.73,54-20.91,182-175.61,323.4-363.33,323.4C750,914,586.05,750,586.05,547.79S750,181.62,952.22,181.62Z" transform="translate(-510 -90)"/><path class="cls-6" d="M948.33,227.43c139.53,0,256.93,94.78,289.22,221.38,2,1.25-60.22-6.38-58.42-4.94a23.2,23.2,0,0,1-11.77-4.74c1.75,1.46-46.74-36.4-45.15-34.77-12.93,9-27.29,18.08-39.64,27.12-1.07.78-2.22,1.68-3.43,2.69.11.13,5.22-.44,5.33-.31a10.72,10.72,0,0,1,1.39,0c.22,0,.43,0,.65.07h0l.51.09.21,0a5.29,5.29,0,0,1,.54.13l.62.18.6.23.58.25.45.23.27.15.38.23,0,0,.51.34a0,0,0,0,0,0,0l.49.37a11.25,11.25,0,0,1,1,.87l.18.19c.11.11.22.23.32.35s.23.27.34.42a10.36,10.36,0,0,1,.75,1.08,49.18,49.18,0,0,0,6.43-1.17,52.55,52.55,0,0,0,11.9-4.72,51.64,51.64,0,0,0,10.27-7.21,40.47,40.47,0,0,1-3.7,5.42,51.6,51.6,0,0,1-4.36,4.85,49.11,49.11,0,0,1-10.29,7.81,40.21,40.21,0,0,1-5.49,2.57c.08.26.15.53.21.8a3.63,3.63,0,0,1,.1.45c0,.15.06.3.08.45a9.46,9.46,0,0,1,.11,1.07c0,.79,0,1.57,0,2.34s-.09,1.54-.18,2.3c.15.25-2.67,8.19-2.52,8.45-.16.32-.32.63-.5.94s-.35.63-.53.93-.37.6-.57.9-.4.59-.61.87-.43.56-.65.83-.44.55-.67.81-.46.53-.7.78c-.48.5-1,1-1.51,1.44-.26.23-.53.46-.79.67a23.85,23.85,0,0,1-2.11,1.51l-.88.53c-.6.35-1.22.66-1.84.95l-1,.41-.48.18c-.33.13-.66.24-1,.35-.66.21-1.33.39-2,.54.44.78-24,4.41-23.57,5.21l-1,.13-.72.13s0,0,0,0c-.22,0-.44.08-.65.12l-.28.07-.8.2-.84.25-.11,0c-.28.09-.57.19-.85.3h0c-.26.09-.53.19-.79.31l-.14.05-.7.31-.34.16c-.4.2-.8.4-1.19.62l-.07,0-.5.29-.26.16-.52.32c-.44.29-.88.59-1.31.91.13.27-6.76,4.74-6.63,5,0,.08-2.16,1.5-2.12,1.59S1034,493.9,1034,494a12.18,12.18,0,0,0-4.71,10.24c0,.19,0,.37,0,.56l0,.37c0,.13,0,.27,0,.4a.5.5,0,0,1,0,.12c0,.14,0,.27.07.4s0,.27.08.4a2.82,2.82,0,0,0,.07.31c0,.17.09.35.14.52a.25.25,0,0,0,0,.07c.05.19.11.37.17.56l.88,2,.16.29s.49.78.5.81c.16.23.33.45.5.67s.32.41.49.61l0,0c.19.21.38.41.58.61h0l.59.55h0s.39.33.4.34a12.48,12.48,0,0,0,3.47,2c.28.1.56.19.85.27a9.78,9.78,0,0,0,1.3.3c.29,0,.59.09.89.12.31.78,23.76,1.56,24,2.34.42,1.19,35.52-1.95,35.88-.74a31.09,31.09,0,0,1,13,2.58c.2.74,20.7,8.25,20.87,9a31.39,31.39,0,0,0,9.25,2.42c.24,1.12,32.33,2.25,32.52,3.39a30.76,30.76,0,0,1,9.19,2.44c.48,3.25,84.93,44.47,84.93,47.86-16.73,162.91-154.51,290-322,290-179.09,0-324.26-145.17-324.26-324.25S769.24,227.43,948.33,227.43Z" transform="translate(-510 -90)"/><path class="cls-7" d="M944.43,273.23c112.45,0,207.76,73.37,238.08,172.25,2.59,1.67-42.94-3.27-40.54-1.35a14.63,14.63,0,0,1-8.14-3c2.33,1.95-33.06-25.54-30.94-23.36-9,7.49-19.07,15-27.68,22.61q-1.12,1-2.4,2.22c.15.18,4-.17,4.19,0a9.66,9.66,0,0,1,1.09.07l.51.09h0l.4.08.17.05.42.12.49.17.47.19.46.22a2.43,2.43,0,0,1,.35.2,1.55,1.55,0,0,1,.22.12l.3.19,0,0,.41.28h0l.39.3a8.51,8.51,0,0,1,.76.71l.15.16a3.2,3.2,0,0,1,.25.27l.28.35a8.87,8.87,0,0,1,.61.86,40,40,0,0,0,5-.57,42.46,42.46,0,0,0,9.4-2.91,39.24,39.24,0,0,0,8.16-4.77,32.85,32.85,0,0,1-2.55,4.39,42.45,42.45,0,0,1-3,4,38.28,38.28,0,0,1-7.27,6.53,30.72,30.72,0,0,1-3.92,2.25c.07.2.13.42.19.63l.09.36c0,.12.05.24.07.36a8.24,8.24,0,0,1,.11.85c0,.63.08,1.26.08,1.88s0,1.22-.06,1.83c.2.33-1.82,6.44-1.62,6.77-.11.26-.22.52-.34.77s-.24.5-.37.75-.26.49-.4.72l-.42.71-.45.68c-.16.22-.32.45-.48.66s-.32.43-.49.64c-.34.41-.7.81-1.07,1.19-.18.19-.38.37-.57.55a16.5,16.5,0,0,1-1.5,1.27c-.2.16-.42.31-.63.46-.42.29-.87.57-1.31.82l-.69.36-.35.17c-.23.11-.47.22-.7.31a13.23,13.23,0,0,1-1.45.52c.58,1-17.49,4.23-17,5.3l-.76.16-.51.13,0,0a3.62,3.62,0,0,0-.47.13l-.2.06-.58.2-.6.23-.08,0-.62.27h0c-.19.08-.38.18-.57.28l-.1.05c-.17.08-.34.18-.5.27l-.25.15c-.29.17-.58.34-.86.53l-.05,0-.36.25-.18.14-.37.28c-.32.24-.64.5-.94.77.16.35-4.93,3.86-4.76,4.21,0,.12-1.58,1.23-1.53,1.34s-2.6,2-2.52,2.22a10.12,10.12,0,0,0-3.25,8.31c0,.15,0,.3,0,.45l0,.29c0,.11,0,.22,0,.33a.34.34,0,0,1,0,.1c0,.11,0,.21.07.32s0,.21.07.32a1.05,1.05,0,0,0,.06.24c0,.14.07.29.11.42l0,.06c0,.15.09.3.14.45s.67,1.53.71,1.61l.12.23s.39.62.4.66l.39.55c.12.17.26.33.39.49l0,0c.14.17.29.34.45.5h0c.15.16.31.31.47.46h0s.31.26.32.28a10.5,10.5,0,0,0,2.69,1.69c.21.09.43.18.65.25a8.83,8.83,0,0,0,1,.3c.23.06.46.1.69.14.41,1,18.17,2.07,18.55,3.12.56,1.58,27.11-.07,27.58,1.55a25.42,25.42,0,0,1,9.93,2.7c.27,1,15.75,7.06,16,8.07a25.89,25.89,0,0,0,7.06,2.37c.32,1.49,24.52,3,24.77,4.52a25.11,25.11,0,0,1,7,2.39c.64,4.34,64.12,37.2,64.12,41.72-12.54,143.8-133.4,256.68-280.63,256.68-155.94,0-282.34-126.41-282.34-282.34S788.49,273.23,944.43,273.23Z" transform="translate(-510 -90)"/><path class="cls-8" d="M940.54,319c85.35,0,158.57,51.95,186.92,123.1,3.24,2.09-25.65-.15-22.65,2.25a6.49,6.49,0,0,1-4.5-1.24c2.91,2.44-19.39-14.68-16.74-12-5,6-10.85,12-15.72,18.1-.42.53-.88,1.12-1.37,1.76.18.23,2.87.1,3,.33a7,7,0,0,1,.8.13l.37.09h0l.3.09.12,0,.31.12.35.15.35.17.33.18.26.16.16.1.22.15,0,0,.3.22h0l.29.23c.2.18.39.36.57.55l.11.12.19.21.21.26a7.75,7.75,0,0,1,.46.66,34.82,34.82,0,0,0,3.68,0,33.26,33.26,0,0,0,6.9-1.11,28.55,28.55,0,0,0,6.05-2.32,24.33,24.33,0,0,1-1.4,3.35,33.86,33.86,0,0,1-1.74,3.07,28.1,28.1,0,0,1-4.25,5.26,20.7,20.7,0,0,1-2.34,1.92c0,.16.11.32.15.48a2.76,2.76,0,0,1,.08.27c0,.09,0,.17.07.26s.08.43.11.64c.07.47.12.94.15,1.4s0,.91,0,1.36c.26.42-1,4.69-.72,5.11-.06.2-.12.39-.19.58s-.13.39-.2.57-.14.38-.22.56l-.24.54c-.09.18-.17.36-.26.53l-.27.51c-.1.17-.2.33-.29.5s-.41.63-.63.93l-.34.45a12.5,12.5,0,0,1-.89,1l-.38.38a10.54,10.54,0,0,1-.8.7l-.41.32-.21.14c-.14.1-.28.2-.43.29s-.58.35-.88.5c.72,1.31-11,4.05-10.32,5.38l-.46.19-.32.14,0,0-.29.13-.12.07-.36.19-.37.22-.05,0-.37.25h0c-.12.08-.24.16-.35.25l-.06,0-.31.24-.15.13c-.18.14-.35.3-.52.45l0,0-.22.21-.12.11-.22.23q-.3.3-.57.63c.21.44-3.09,3-2.88,3.43.06.14-1,1-.93,1.09s-1.64,1.57-1.54,1.8a8.45,8.45,0,0,0-1.79,6.38c0,.12,0,.23,0,.34a1.43,1.43,0,0,0,0,.22,1.87,1.87,0,0,0,0,.25s0,0,0,.07l.06.24a2,2,0,0,0,0,.24c0,.07,0,.13,0,.19l.09.32,0,0c0,.11.07.22.11.34l.53,1.22a1.62,1.62,0,0,0,.1.18c0,.05.27.46.29.5s.18.29.28.43l.28.38,0,0,.33.4h0c.11.12.22.25.34.36h0s.21.19.22.22a9.14,9.14,0,0,0,1.91,1.41l.46.23c.24.11.47.21.71.3l.48.16c.52,1.29,12.59,2.59,13,3.9.7,2,18.71,1.81,19.3,3.83a20.55,20.55,0,0,1,6.91,2.83c.33,1.24,10.8,5.87,11.09,7.13a21.07,21.07,0,0,0,4.88,2.32c.41,1.86,16.7,3.75,17,5.65a19.21,19.21,0,0,1,4.77,2.35c.81,5.42,43.33,29.92,43.33,35.57-8.36,124.69-112.3,223.32-239.28,223.32-132.79,0-240.43-107.65-240.43-240.43S807.75,319,940.54,319Z" transform="translate(-510 -90)"/><path class="cls-9" d="M936.65,364.85c58.26,0,109.39,30.53,135.76,74,3.89,2.5-8.36,2.95-4.76,5.84-.38.44-.71.59-.87.51,3.5,2.93-5.7-3.82-2.52-.56-1.1,4.45-2.65,9-3.77,13.6-.09.4-.21.84-.34,1.29.22.28,1.69.37,1.91.65a3,3,0,0,1,.5.19l.23.1h0l.18.09.07,0,.2.11.22.13.22.14.21.15.17.12.09.08.15.11h0l.19.17h0l.18.18a4.4,4.4,0,0,1,.37.38.6.6,0,0,0,.08.08l.12.15.15.18c.11.14.22.29.32.44.78.24,1.55.44,2.31.62a35,35,0,0,0,4.39.7,28.18,28.18,0,0,0,4,.12c-.05.8-.14,1.57-.26,2.31s-.27,1.48-.43,2.19a24.44,24.44,0,0,1-1.24,4,15.81,15.81,0,0,1-.76,1.6c0,.1.09.21.13.31l.06.18a.64.64,0,0,1,.06.18c0,.13.09.28.13.42.08.31.15.61.21.92s.12.6.16.9c.31.51-.13,2.93.18,3.44l0,.4c0,.13,0,.26,0,.39s0,.26,0,.39,0,.25,0,.38,0,.24-.07.37-.05.24-.07.36l-.09.35c0,.24-.12.47-.18.69s-.07.22-.11.33c-.09.27-.19.54-.29.79s-.08.2-.13.3-.17.38-.27.57-.09.18-.14.27l-.07.13-.15.26c-.1.16-.21.33-.32.48.87,1.56-4.49,3.86-3.69,5.46l-.17.22-.12.15h0l-.11.15,0,.06a2.14,2.14,0,0,1-.13.19l-.13.21,0,0c-.05.07-.09.15-.14.23h0a1.59,1.59,0,0,0-.13.22.08.08,0,0,0,0,0l-.12.2a.54.54,0,0,1,0,.11c-.06.12-.13.25-.19.38v0l-.08.16,0,.1a1.59,1.59,0,0,0-.08.18c-.07.16-.14.32-.2.49.25.53-1.25,2.11-1,2.64.07.17-.41.67-.33.84s-.68,1.1-.55,1.38a8.06,8.06,0,0,0-.34,4.46c0,.07,0,.15,0,.22a.83.83,0,0,0,0,.15l0,.17a.11.11,0,0,0,0,0c0,.05,0,.1,0,.16s0,.11,0,.16a.93.93,0,0,0,0,.13,1.72,1.72,0,0,0,.07.21v0c0,.07,0,.15.08.23s.3.71.36.83l.06.13s.16.29.19.34a2.91,2.91,0,0,0,.17.3l.18.28h0l.2.29h0c.07.09.13.18.2.26h0a2,2,0,0,1,.14.16,8,8,0,0,0,1.13,1.13,1.71,1.71,0,0,0,.26.21q.21.17.42.3a2.61,2.61,0,0,0,.28.17c.61,1.55,7,3.11,7.55,4.69.84,2.37,10.3,3.68,11,6.11a19.75,19.75,0,0,1,3.89,3c.4,1.49,5.85,4.68,6.2,6.18a20.49,20.49,0,0,0,2.69,2.28c.49,2.24,8.89,4.5,9.26,6.78a18,18,0,0,1,2.56,2.3c1,6.51,22.52,22.65,22.52,29.43-4.18,105.59-91.2,190-197.92,190C827,761.86,738.14,673,738.14,563.36S827,364.85,936.65,364.85Z" transform="translate(-510 -90)"/><path class="cls-3" d="M1089.33,567.25A156.59,156.59,0,1,1,932.76,410.66,156.58,156.58,0,0,1,1089.33,567.25Z" transform="translate(-510 -90)"/><g id="Scroll"><path class="cls-10" d="M760.84,566.91c-21.69,16.1-52.48,38.61-56.1,39.5-12.88,3.11-28.29,1.86-37.54-7.61-7.5-7.69-19.2-20.39-19.2-38.4,0-38.4,38.4-48,38.4-48l12.55,5C713.3,524.18,737.78,538.75,760.84,566.91Z" transform="translate(-510 -90)"/><path class="cls-11" d="M1190.51,640.22,1032,790.8c-2.08,3.13-5,15.74-8.51,18.57-29.11,23.21-103.34,33.81-154.69-9C811.2,752.4,810,711,783,621c-6.49-21.64-11-40.46-22.16-54.09-23.06-28.16-47.54-42.73-61.89-49.49a93.18,93.18,0,0,0-12.55-5L916.8,378s76.8,0,115.2,86.4,37.22,114,76.8,153.6C1126.71,635.91,1163.18,646.39,1190.51,640.22Z" transform="translate(-510 -90)"/><path class="cls-10" d="M1224,598.8c-4.82,7.23,2.19,52.49-9.6,57.6l-190.91,153c3.55-2.83,6.43-15.44,8.51-18.57Z" transform="translate(-510 -90)"/></g><g id="ink"><ellipse class="cls-12" cx="174" cy="196.89" rx="49.51" ry="18"/><path class="cls-12" d="M576,339.55v77a25,25,0,0,0,12.4,21.59l70.41,41.07a50,50,0,0,0,50.38,0l70.41-41.07A25,25,0,0,0,792,416.53v-77a25,25,0,0,0-15.38-23.08L703.23,285.9a50,50,0,0,0-38.46,0l-73.39,30.57A25,25,0,0,0,576,339.55Z" transform="translate(-510 -90)"/><path class="cls-13" d="M782.93,363.7c-.59,5.8-4.79,11.05-11.3,14L769,378.94l-61.88,28.19a57.12,57.12,0,0,1-46.18,0L599,378.94l-2.66-1.21c-6.51-3-10.71-8.23-11.3-14a14.4,14.4,0,0,1,.27-1.62c1.33-5.95,6.45-11.06,13.76-13.45l67.27-21.88a57.84,57.84,0,0,1,35.26,0l67.27,21.88c7.31,2.39,12.43,7.5,13.76,13.45A14.4,14.4,0,0,1,782.93,363.7Z" transform="translate(-510 -90)"/><path class="cls-1" d="M783,406.25a22.1,22.1,0,0,1-11.37,19.19L707.09,462a47.07,47.07,0,0,1-46.18,0l-64.54-36.51A22.1,22.1,0,0,1,585,406.25s.13-43.1.07-42.55c.59,5.8,4.79,11.05,11.3,14l2.66,1.21,61.88,28.19a57.12,57.12,0,0,0,46.18,0L769,378.94l2.66-1.21c6.51-3,10.71-8.23,11.3-14C782.87,363.15,783,406.25,783,406.25Z" transform="translate(-510 -90)"/><path class="cls-14" d="M741.09,281.74a14.1,14.1,0,0,1-3.75,9.18h0c-.12.37-.26.73-.42,1.1-5,11.74-26.79,20.57-52.92,20.57s-47.92-8.83-52.92-20.57c-.16-.37-.3-.73-.42-1.1h0a13.12,13.12,0,0,1,0-18.37,12.76,12.76,0,0,0,.42,9.19,18.28,18.28,0,0,0,3.41,5.15c8.33,9.08,27.36,15.42,49.51,15.42s41.18-6.34,49.51-15.42a18.28,18.28,0,0,0,3.41-5.15,12.76,12.76,0,0,0,.42-9.19A14.18,14.18,0,0,1,741.09,281.74Z" transform="translate(-510 -90)"/><path class="cls-15" d="M738,276.6a13,13,0,0,1-1.08,5.14c-5-11.73-26.79-20.57-52.92-20.57s-47.92,8.84-52.92,20.57a12.76,12.76,0,0,1-.42-9.19h0c4.08-12.27,26.41-21.65,53.33-21.65s49.25,9.38,53.33,21.65h0A13.06,13.06,0,0,1,738,276.6Z" transform="translate(-510 -90)"/><path class="cls-15" d="M738,297.17c0,14.21-24.18,25.72-54,25.72s-54-11.51-54-25.72a13,13,0,0,1,1.08-5.14c5,11.74,26.79,20.57,52.92,20.57s47.92-8.83,52.92-20.57A13,13,0,0,1,738,297.17Z" transform="translate(-510 -90)"/><path class="cls-16" d="M701.92,376.7c6.62-3.29,13.28-6.48,19.92-9.73l20-9.55c6.68-3.16,13.22-6.63,20.09-9.36,3.43-1.38,6.87-2.73,10.36-4s7-2.42,10.62-3.4l.16.37c-3.14,2-6.37,3.85-9.63,5.6s-6.57,3.42-9.89,5c-6.63,3.27-13.59,5.8-20.41,8.64l-20.49,8.45c-6.86,2.75-13.7,5.56-20.58,8.27Z" transform="translate(-510 -90)"/><path class="cls-16" d="M585.08,340.7c3.61,1,7.13,2.15,10.62,3.4s6.93,2.58,10.36,4c6.87,2.73,13.41,6.2,20.09,9.36l20,9.55c6.64,3.25,13.3,6.44,19.92,9.73l-.16.37c-6.88-2.71-13.72-5.52-20.58-8.27l-20.49-8.45c-6.82-2.84-13.78-5.37-20.41-8.64-3.32-1.62-6.63-3.27-9.89-5s-6.49-3.58-9.63-5.6Z" transform="translate(-510 -90)"/><path class="cls-15" d="M657,304.45a59,59,0,0,1-9.76-2.51,48,48,0,0,1-9.08-4.43,31.47,31.47,0,0,1-7.72-6.5,14.62,14.62,0,0,1-3.57-9.27h.1a14.31,14.31,0,0,0,3.85,8.95,30.94,30.94,0,0,0,7.75,6.13,71,71,0,0,0,9,4.19c3.09,1.24,6.26,2.26,9.43,3.35Z" transform="translate(-510 -90)"/><path class="cls-15" d="M741.14,281.74a14.62,14.62,0,0,1-3.57,9.27,31.47,31.47,0,0,1-7.72,6.5,48,48,0,0,1-9.08,4.43,59,59,0,0,1-9.76,2.51l0-.09c3.17-1.09,6.34-2.11,9.43-3.35a71,71,0,0,0,9-4.19,30.94,30.94,0,0,0,7.75-6.13,14.31,14.31,0,0,0,3.85-8.95Z" transform="translate(-510 -90)"/><path class="cls-16" d="M720,295.77a72.12,72.12,0,0,1-19.56,6.11,100.89,100.89,0,0,1-20.54,1.35,94.86,94.86,0,0,1-20.38-2.9A58.13,58.13,0,0,1,640.8,292a58.4,58.4,0,0,0,9.33,4.06,86.58,86.58,0,0,0,9.76,2.72c3.3.7,6.63,1.27,10,1.65s6.72.69,10.1.77a123.27,123.27,0,0,0,20.23-.89A95.48,95.48,0,0,0,720,295.77Z" transform="translate(-510 -90)"/><path class="cls-15" d="M736.92,281.74a18.28,18.28,0,0,1-3.41,5.15c-8.33-9.09-27.36-15.43-49.51-15.43s-41.18,6.34-49.51,15.43a18.28,18.28,0,0,1-3.41-5.15c5-11.73,26.79-20.57,52.92-20.57S731.92,270,736.92,281.74Z" transform="translate(-510 -90)"/></g><g id="HAnd"><path class="cls-17" d="M1125,423.3c0,1.27-.06,2.53-.18,3.77a37,37,0,0,1-.52,3.68l-5.2,13.46c-.31.51-.63,1-1,1.5s-.68,1-1,1.46-.72.95-1.1,1.41-.76.92-1.16,1.36-.8.88-1.22,1.3-.84.85-1.27,1.25-.88.81-1.33,1.2c-.91.77-1.85,1.51-2.82,2.2-.49.35-1,.69-1.49,1a39.65,39.65,0,0,1-3.92,2.23c-.54.27-1.09.53-1.64.77-1.11.49-2.25.93-3.41,1.32-.59.2-1.17.38-1.77.55l-.89.24c-.6.16-1.21.3-1.82.43-1.22.25-2.47.46-3.73.6l-43.45,5c-.65,0-1.29,0-1.94.05-.44,0-.87.05-1.31.09a.17.17,0,0,0-.1,0c-.4,0-.8.06-1.19.11l-.51.06c-.5.06-1,.14-1.48.22s-1,.18-1.53.28l-.2,0c-.52.11-1,.23-1.57.37h0c-.49.12-1,.25-1.46.4l-.25.07c-.44.13-.86.27-1.29.42-.21.06-.42.14-.63.22-.74.26-1.47.55-2.19.86l-.13.05-.92.41-.48.23c-.32.15-.64.3-.95.47-.82.41-1.63.85-2.42,1.33l-12.27,7.36,36.33-50,.78-1c.24-.32.49-.63.74-.93l.07-.09c.24-.31.5-.61.75-.91s.72-.84,1.1-1.24.72-.79,1.1-1.18c0,0,0,0,.05,0,.39-.4.78-.8,1.19-1.19l0,0c.37-.37.76-.72,1.15-1.07a2.79,2.79,0,0,1,.32-.28q.56-.51,1.14-1c.45-.38.9-.74,1.37-1.1s.85-.66,1.29-1,.88-.63,1.32-.92c.89-.61,1.79-1.18,2.72-1.72.46-.28.93-.54,1.4-.79s.92-.49,1.38-.73l0,0c.48-.25,1-.48,1.45-.7s1.06-.49,1.6-.71l1.2-.49c.47-.19.94-.36,1.42-.53l.85-.3.59-.19c.27-.09.54-.18.81-.25.44-.14.88-.27,1.33-.39l1.35-.35c.59-.15,1.18-.28,1.78-.4s.94-.19,1.41-.27,1.08-.18,1.62-.26l15.2-2.17,8.75-1.25a16.09,16.09,0,0,1,2.28-.16c.36,0,.71,0,1.06,0,0,0,0,0,0,0,.28,0,.56,0,.84.08l.34.05a6.61,6.61,0,0,1,.89.15c.34.07.68.15,1,.24s.66.19,1,.31.64.23,1,.36a6.89,6.89,0,0,1,.73.34c.15.06.3.14.44.21l.63.35a.05.05,0,0,1,0,0c.29.16.57.34.84.52h0c.27.18.53.37.79.57a13.27,13.27,0,0,1,1.55,1.35,4.11,4.11,0,0,1,.29.3,6.51,6.51,0,0,1,.51.54c.19.22.37.44.55.67a14.46,14.46,0,0,1,1.17,1.72s0,0,0,.06c.13.21.25.42.36.64s.36.73.52,1.1.23.56.33.85.21.6.3.91a0,0,0,0,1,0,0c.12.41.23.84.31,1.27,0,.24.1.49.13.73s.07.48.1.72A16.23,16.23,0,0,1,1125,423.3Z" transform="translate(-510 -90)"/><path class="cls-18" d="M1180.16,364.13c-24.76,13.58-51.94,27.16-75.52,40.62-2,1.16-4.22,2.53-6.51,4.09l-15.2,2.17c-.54.08-1.08.16-1.62.26s-.94.17-1.41.27-1.19.25-1.78.4l-1.35.35c-.45.12-.89.25-1.33.39-.27.07-.54.16-.81.25l-.59.19-.85.3c-.48.17-1,.34-1.42.53l-1.2.49c-.54.22-1.07.46-1.6.71s-1,.45-1.45.7l0,0c-.46.24-.93.48-1.38.73s-.94.51-1.4.79c-.93.54-1.83,1.11-2.72,1.72-.44.29-.88.6-1.32.92s-.87.64-1.29,1-.92.72-1.37,1.1-.77.65-1.14,1a2.79,2.79,0,0,0-.32.28c-.39.35-.78.7-1.15,1.07l0,0c-.41.39-.8.79-1.19,1.19,0,0,0,0-.05,0-.38.39-.75.78-1.1,1.18s-.74.82-1.1,1.24-.51.6-.75.91l-.07.09c-.25.3-.5.61-.74.93l-.78,1-36.33,50-3.91,2.35-6.47,3.88a18.67,18.67,0,0,0-9.07,16c0,.3,0,.6,0,.89s0,.39,0,.59l.06.65a1.23,1.23,0,0,1,0,.19c0,.22.06.43.1.64s.07.42.11.63a11.52,11.52,0,0,1-18.49-12.61L997.51,436a25.29,25.29,0,0,1,4.2-7.23l37.74-45.28a24.86,24.86,0,0,1,10.83-7.54l.47-.17L1152,342Z" transform="translate(-510 -90)"/><g id="Quill"><path class="cls-19" d="M1380.2,218.25h0a84.72,84.72,0,0,1-15.8.16,62,62,0,0,1-18.34-4.21c22.54-14.47,57.12-25.55,67.93-17.56C1425.28,205,1389.66,215.59,1380.2,218.25Z" transform="translate(-510 -90)"/><path class="cls-12" d="M1410.5,209.12a83.64,83.64,0,0,1-30.3,9.13c9.46-2.66,45.08-13.25,33.78-21.61-10.81-8-45.39,3.09-67.93,17.56-12.31,7.9-23.18,16.63-28.81,23.09-4.36,5-8.53,9.94-12.58,14.81h0c-23.57-1.84-71.53-.55-94.78,4,37.38-2.51,74.76,7,82.94,10.42-25.21,30.79-47.61,58.25-82.94,80.41-9.16,5.75-19.22,11.5-29.71,17.25-24.76,13.58-51.94,27.16-75.52,40.62-2,1.16-4.22,2.53-6.51,4.09a287.39,287.39,0,0,0-26.41,20.94,112.16,112.16,0,0,1,18.09-7.77,133.51,133.51,0,0,1,22.16-4.88c3.67-.55,7.29-1.12,10.85-1.86a73.65,73.65,0,0,0,10.55-2.95,88,88,0,0,0,19.41-10.15,92.84,92.84,0,0,0,16.59-14.54,67.43,67.43,0,0,1-7.13,8.53,87.07,87.07,0,0,1-27.64,19.16,77.3,77.3,0,0,1-10.23,3.54l-.59.16c-3.68,1-7.4,1.68-11.06,2.38s-7.29,1.36-10.86,2.17-7.08,1.78-10.54,2.91-6.86,2.44-10.19,3.91-6.64,3-9.83,4.79-6.32,3.63-9.37,5.65c-1.52,1-3,2-4.51,3.13s-3,2.14-4.41,3.25c-.69.52-1.37,1.05-2,1.59-2.19,1.75-4.32,3.56-6.42,5.41-2.76,2.41-5.43,4.93-8,7.56s-5,5.34-7.4,8.17c-.57.68-1.12,1.36-1.67,2.06l-.9.92-.33.34c-.63.64-1.24,1.28-1.84,1.9l-.2.37c.66-.69,1.34-1.38,2-2l.33-.32,0,0,.21-.2c.75-.72,1.52-1.43,2.32-2.13a46.48,46.48,0,0,1,4.45-3.48c1.62-1.1,3.14-2.06,4.72-3a54.28,54.28,0,0,1,10.19-5,37.74,37.74,0,0,1,11.4-2c.95,0,1.89,0,2.83,0s1.78,0,2.68-.06c1.77-.07,3.54-.25,5.3-.49a58.53,58.53,0,0,0,10.44-2.5,54.54,54.54,0,0,0,10-4.43,32.76,32.76,0,0,1-4.39,3.37,46.92,46.92,0,0,1-4.83,2.78,51,51,0,0,1-10.57,3.85,52.51,52.51,0,0,1-5.6,1c-.94.13-1.92.17-2.82.28s-1.79.19-2.67.31a48.85,48.85,0,0,0-10.12,2.31,90,90,0,0,0-9.64,4.36l-.91.46c-1.32.65-2.66,1.3-3.85,2-1.51.88-3,1.85-4.44,2.89-2.9,2.07-5.71,4.35-8.46,6.71l-1,.9q-3.5,3-6.91,6.22l.15-.34c.53-1.15,1-2.3,1.54-3.45l-2.35,2.55c-2.44,2.68-4.16,4.68-5,5.74.08-.19,1.83-4.32,4.8-11.19l.66-1.53c1.48-3.42,3.21-7.43,5.16-11.91l.08-.18c.73-2.67,1.42-5.34,2.07-8,3-12,5.17-24.13,8.06-36.29l1.2-4.54.61-2.26c.19-.76.45-1.5.68-2.25.93-3,1.79-6,3-8.95l1.67-4.41,1.92-4.31,1-2.16c.33-.7.6-1.44,1-2.13l2.23-4.16c2.14-4,4.48-7.81,7-11.55A183.8,183.8,0,0,1,1065,356.86c-3.87,5.9-7.66,11.83-11.18,17.87-2.71,4.64-5.27,9.36-7.58,14.19a173.3,173.3,0,0,0-12.09,34.69c-.72,3-1.44,6-2.13,9s-1.34,6-2.08,9.07q-.66,2.73-1.33,5.46c10.15-23,22.85-51.29,34.42-75.49,4.56-9.54,8.94-18.44,12.93-26.14,25.31-48.9,109.37-150.6,170.73-182.48s127.93-16.76,150.94-4.53S1439.55,193.82,1410.5,209.12Z" transform="translate(-510 -90)"/><path class="cls-1" d="M1333.19,155.79c-88.67,36.52-169.42,122.63-229.42,202.29-16.45,21.85-31.34,43.2-44.41,62.92-12.74,19.22-23.74,36.89-32.77,51.92a1.76,1.76,0,0,1-.14.23,3.79,3.79,0,0,1-.2.34q-2.32,3.9-4.49,7.56c-10.19,17.26-17.31,30.23-20.89,36.91-1.78,3.29-2.69,5.06-2.69,5.06L954,576c.41-.75,15.14-28.06,40.23-68.59.34-.57.7-1.14,1.06-1.71h0q6.54-10.57,14-22.26,5.07-7.92,10.53-16.27c21.29-32.53,46.89-69.39,75.51-106.26C1163.4,273.2,1248.48,185.47,1333.19,155.79Z" transform="translate(-510 -90)"/></g><path class="cls-18" d="M1410,540q0,6.15-.17,12.27a446.86,446.86,0,0,1-3.79,47.6l-147.34-66.3a50,50,0,0,0-15.81-2.57h-55.78a50,50,0,0,1-15.81-2.57l-35.54-11.84a50,50,0,0,0-22-2.18L1053,522h-40.53q-.75,0-1.5-.06a17.76,17.76,0,0,1-2.19-.31c-.48-.09-.95-.21-1.42-.34a18.81,18.81,0,0,1-5.82-2.82l-.67-.51h0q-.51-.41-1-.84h0c-.33-.3-.65-.61-1-.94l-.06-.06c-.28-.3-.56-.62-.82-.94s-.55-.69-.81-1l-.82-1.27-.26-.45-1.39-3.17c-.1-.3-.19-.59-.27-.89l0-.11c-.07-.27-.14-.55-.2-.83a3.88,3.88,0,0,1-.11-.49c0-.21-.08-.42-.11-.63s-.07-.42-.1-.64a1.23,1.23,0,0,0,0-.19l-.06-.65c0-.2,0-.39,0-.59s0-.59,0-.89a18.67,18.67,0,0,1,9.07-16l6.47-3.88,3.91-2.35,12.27-7.36c.79-.48,1.6-.92,2.42-1.33.31-.17.63-.32.95-.47l.48-.23.92-.41.13-.05c.72-.31,1.45-.6,2.19-.86.21-.08.42-.16.63-.22.43-.15.85-.29,1.29-.42l.25-.07c.48-.15,1-.28,1.46-.4h0c.52-.14,1-.26,1.57-.37l.2,0c.51-.1,1-.2,1.53-.28s1-.16,1.48-.22l.51-.06c.39-.05.79-.09,1.19-.11a.17.17,0,0,1,.1,0c.44,0,.87-.07,1.31-.09.65,0,1.29-.05,1.94-.05l43.45-5c1.26-.14,2.51-.35,3.73-.6.61-.13,1.22-.27,1.82-.43l.89-.24c.6-.17,1.18-.35,1.77-.55,1.16-.39,2.3-.83,3.41-1.32.55-.24,1.1-.5,1.64-.77a39.65,39.65,0,0,0,3.92-2.23c.5-.32,1-.66,1.49-1,1-.69,1.91-1.43,2.82-2.2.45-.39.89-.79,1.33-1.2s.86-.82,1.27-1.25.82-.86,1.22-1.3.78-.9,1.16-1.36.74-.93,1.1-1.41.7-1,1-1.46.66-1,1-1.5l5.2-13.46a37,37,0,0,0,.52-3.68c.12-1.24.18-2.5.18-3.77a16.23,16.23,0,0,0-.09-1.72c0-.24-.06-.48-.1-.72s-.08-.49-.13-.73c-.08-.43-.19-.86-.31-1.27a77.3,77.3,0,0,0,10.23-3.54,87.07,87.07,0,0,0,27.64-19.16,67.43,67.43,0,0,0,7.13-8.53,92.84,92.84,0,0,1-16.59,14.54,88,88,0,0,1-19.41,10.15,73.65,73.65,0,0,1-10.55,2.95,14.46,14.46,0,0,0-1.17-1.72c-.18-.23-.36-.45-.55-.67a6.51,6.51,0,0,0-.51-.54,4.11,4.11,0,0,0-.29-.3,13.27,13.27,0,0,0-1.55-1.35c-.26-.2-.52-.39-.79-.57h0c-.27-.18-.55-.36-.84-.52a.05.05,0,0,0,0,0l-.63-.35c-.14-.07-.29-.15-.44-.21a6.89,6.89,0,0,0-.73-.34c-.31-.13-.63-.25-1-.36s-.66-.22-1-.31-.67-.17-1-.24a6.61,6.61,0,0,0-.89-.15l-.34-.05c-.28,0-.56-.06-.84-.08,0,0,0,0,0,0-.35,0-.7,0-1.06,0a16.09,16.09,0,0,0-2.28.16l-8.75,1.25c2.29-1.56,4.47-2.93,6.51-4.09,23.58-13.46,50.76-27,75.52-40.62l87.78,69a50.08,50.08,0,0,0,22.67,10l112.08,15.72q1.13,6.14,2.07,12.33A453,453,0,0,1,1410,540Z" transform="translate(-510 -90)"/><path class="cls-18" d="M1404.76,471.15q-.94-6.19-2.07-12.33Z" transform="translate(-510 -90)"/></g><g id="Text"><path class="cls-20" d="M642.84,750.78a11.74,11.74,0,0,1-5.13,7.17,12.26,12.26,0,0,1-7.68,2,16.73,16.73,0,0,1-8.34-3.19,30.31,30.31,0,0,1-7.78-8.26c-6-9-8.92-13.69-14.49-23.18,16.12-7.59,32-15.75,48-23.53,4.62,7.88,7,11.75,12,19.33a24.92,24.92,0,0,1,3.87,8.87,13,13,0,0,1-.58,7.59,12.9,12.9,0,0,1-12.82,7.6,15,15,0,0,1-7.89-3.55A13.13,13.13,0,0,1,642.84,750.78Zm-9.17-29.11c2.27,3.65,3.42,5.46,5.76,9a10.47,10.47,0,0,0,5,4.46,6.16,6.16,0,0,0,5.48-.71,5.75,5.75,0,0,0,3-4.38c.19-1.8-.45-3.81-1.91-6.06-2.26-3.46-3.37-5.21-5.55-8.73C640.79,717.8,638.41,719.09,633.67,721.67Zm-7.79,26.18a6.33,6.33,0,0,0,5.83-.6,6.05,6.05,0,0,0,3.16-4.91,11,11,0,0,0-2.16-6.75c-2.59-3.93-3.86-5.92-6.36-9.94-5.09,2.76-7.63,4.13-12.69,6.76,2.65,4.25,4,6.36,6.74,10.52A12.12,12.12,0,0,0,625.88,747.85Z" transform="translate(-510 -90)"/><path class="cls-20" d="M674,796.8c-7.64-8.5-15-17.07-22.16-25.94a9.18,9.18,0,0,0-3.51,6.95,11.38,11.38,0,0,0,2.93,7.58c2.89,3.45,6.3,4.86,10.15,4.2,3.37,3.87,5.08,5.78,8.54,9.54a19.14,19.14,0,0,1-12.84.33,26.38,26.38,0,0,1-12.58-8.79,26.89,26.89,0,0,1-5.87-11.34,17.73,17.73,0,0,1,.88-11.05,20.09,20.09,0,0,1,7.57-8.79,23.8,23.8,0,0,1,11.26-4.17,21.26,21.26,0,0,1,11.06,1.94,26.61,26.61,0,0,1,9.37,7.46,24.89,24.89,0,0,1,5.24,10.15,18.56,18.56,0,0,1-.44,10.45,20.55,20.55,0,0,1-6.3,9.09A22.61,22.61,0,0,1,674,796.8Zm-2.39-13.24a7.94,7.94,0,0,0,3-6.52,11.75,11.75,0,0,0-2.92-7.3,11.5,11.5,0,0,0-6.41-4.1,11,11,0,0,0-7.61,1.12C663.14,773.65,665.93,777,671.64,783.56Z" transform="translate(-510 -90)"/><path class="cls-20" d="M714.32,815.24c-5.45,5.76-8.18,8.67-13.62,14.36a3.47,3.47,0,0,0-1.21,2.89,5.94,5.94,0,0,0,2.24,3.16c1.64,1.42,2.47,2.12,4.13,3.52-2.32,2.54-3.47,3.8-5.77,6.29-2.3-1.93-3.44-2.9-5.71-4.87-7.61-6.62-8.3-13-2.29-19,5.6-5.53,8.42-8.36,14-14-1.52-1.44-2.27-2.16-3.78-3.63l6.15-5.95c1.46,1.44,2.2,2.15,3.68,3.57,2.88-2.86,4.32-4.28,7.18-7.08,3.07,2.95,4.62,4.4,7.75,7.24-2.77,2.88-4.16,4.33-6.94,7.26,2.84,2.56,4.27,3.82,7.15,6.3l-5.66,6.29C718.7,819.14,717.23,817.85,714.32,815.24Z" transform="translate(-510 -90)"/><path class="cls-20" d="M758,840.84a14,14,0,0,1,1.43,8,19.08,19.08,0,0,1-3.5,8.79c-5.32,7.72-8,11.59-13.26,19.15-3.93-2.51-5.87-3.8-9.74-6.43,5.19-7,7.82-10.56,13.06-17.71,1.88-2.57,2.62-5,2.25-7.4a9.36,9.36,0,0,0-4.1-6.12,10.12,10.12,0,0,0-7.29-2.22,10.36,10.36,0,0,0-6.76,4.16c-5.65,6.93-8.47,10.4-14.06,17.13-3.77-2.85-5.63-4.31-9.33-7.29,11.85-13.53,23.56-27.18,35.4-40.72,3.16,2.63,4.76,3.92,8,6.45-4.67,5.64-7,8.52-11.73,14.29a14.9,14.9,0,0,1,7,.14,19.74,19.74,0,0,1,7,3.32A18.09,18.09,0,0,1,758,840.84Z" transform="translate(-510 -90)"/><path class="cls-20" d="M796.6,887.32c-9.57-4.34-19.07-9.24-28.17-14.51a8.94,8.94,0,0,0-.6,7.36,10.58,10.58,0,0,0,5.18,5.57c3.69,2,7.12,1.93,10.2-.06,4.27,2.14,6.42,3.17,10.73,5.16a18.07,18.07,0,0,1-10.92,5.1,23.55,23.55,0,0,1-13.92-3,24.57,24.57,0,0,1-9-7.84A17.22,17.22,0,0,1,757,875a19.34,19.34,0,0,1,3.47-10.46,22.23,22.23,0,0,1,8.25-7.66,19.6,19.6,0,0,1,10.18-2.27,24.47,24.47,0,0,1,10.63,3.13,23.07,23.07,0,0,1,8,6.92,17.47,17.47,0,0,1,3.29,9.2A19.57,19.57,0,0,1,798.6,884,20.77,20.77,0,0,1,796.6,887.32Zm-6.72-10.6a7.55,7.55,0,0,0,.31-6.73,10.89,10.89,0,0,0-5.06-5.28,10.48,10.48,0,0,0-6.94-1.27,10.24,10.24,0,0,0-6.16,3.69C779.09,871.19,782.66,873.11,789.88,876.72Z" transform="translate(-510 -90)"/><path class="cls-20" d="M844.43,890.06c-2.73-.82-4.09-1.24-6.81-2.12q-5.39,14.43-10.81,28.85c-4.34-1.42-6.5-2.16-10.8-3.71l11.72-28.52c-1.75-.63-2.62-.95-4.36-1.61,1.27-3,1.9-4.47,3.17-7.44,1.7.64,2.55,1,4.26,1.58l.75-1.82c1.81-4.42,4.44-7.19,7.79-8.4s7.5-.94,12.55.7l-2.75,7.77c-2.27-.71-4-.83-5.17-.32s-2.17,1.78-3,3.84c-.22.61-.34.91-.56,1.51,2.65.85,4,1.26,6.64,2C846,885.47,845.5,887,844.43,890.06Z" transform="translate(-510 -90)"/><path class="cls-20" d="M856,878.39a5.11,5.11,0,0,1-.36-4.33,5.81,5.81,0,0,1,2.91-3.44,6.26,6.26,0,0,1,4.55-.5,5.53,5.53,0,0,1,3.58,2.54,5.17,5.17,0,0,1,.48,4.28,5.76,5.76,0,0,1-2.81,3.55,6.17,6.17,0,0,1-4.67.55A5.57,5.57,0,0,1,856,878.39Zm7.08,8.27c-3.65,12.51-7.27,25-11,37.51-4.35-1.13-6.51-1.72-10.83-2.95,4.1-12.33,8.1-24.68,12.14-37C857.22,885.24,859.16,885.73,863,886.66Z" transform="translate(-510 -90)"/><path class="cls-20" d="M887.13,892.65a15,15,0,0,1,7.35-.74l-1.94,10.49-2.68-.4c-3.19-.49-5.73-.17-7.67,1s-3.33,3.55-4.13,7.14c-1.74,7.74-2.61,11.6-4.34,19-4.39-.88-6.58-1.35-10.94-2.36,3.36-12.64,6.59-25.32,9.86-38,3.91.8,5.86,1.17,9.79,1.85-.54,2.4-.81,3.6-1.35,6A15.88,15.88,0,0,1,887.13,892.65Z" transform="translate(-510 -90)"/><path class="cls-20" d="M901.76,932.72a15.48,15.48,0,0,1-6-5.53,10.79,10.79,0,0,1-1.54-6.92c4.3.64,6.45.93,10.76,1.45a5.28,5.28,0,0,0,1.91,4.08,10.31,10.31,0,0,0,10.1,1.42,3.49,3.49,0,0,0,2.05-2.81,3.14,3.14,0,0,0-1.81-3.13,40,40,0,0,0-6.41-2.79,56.66,56.66,0,0,1-7.36-3.12,12.42,12.42,0,0,1-4.54-4.19,9.2,9.2,0,0,1-1-6.71,11.08,11.08,0,0,1,2.91-5.83,14.25,14.25,0,0,1,6.08-3.75,21.87,21.87,0,0,1,8.47-.9c4.68.34,8.28,1.72,10.89,4.3a13.73,13.73,0,0,1,3.94,10.24c-4-.17-5.93-.28-9.88-.56a5.28,5.28,0,0,0-1.61-4.05,7.29,7.29,0,0,0-4.6-1.81,7.79,7.79,0,0,0-4.37.66,3.48,3.48,0,0,0-1.88,2.71,3.26,3.26,0,0,0,1.65,3.33,29.18,29.18,0,0,0,6.18,2.78,63.31,63.31,0,0,1,7.16,2.87,13.26,13.26,0,0,1,4.78,4,10.51,10.51,0,0,1-.77,12.77,13.09,13.09,0,0,1-6.36,3.72,27.09,27.09,0,0,1-18.75-2.25Z" transform="translate(-510 -90)"/><path class="cls-20" d="M951.18,904.27c-.11,8.31-.17,12.56-.29,20.62a3.84,3.84,0,0,0,1,3,5.28,5.28,0,0,0,3.53.93c2,0,3,0,5.07-.05,0,3.51,0,5.23.09,8.54-2.81,0-4.21,0-7,0-9.41-.06-13.92-4.21-13.55-12.75.34-8,.51-12.13.86-20.3-1.93,0-2.89,0-4.82-.08.2-3.49.29-5.24.49-8.69,1.88,0,2.82,0,4.7,0,.18-4.13.26-6.17.44-10.13,3.9-.05,5.85-.1,9.76-.25-.06,4-.09,6.06-.15,10.23,3.53-.1,5.3-.17,8.84-.35,0,3.53.05,5.33.09,8.93C956.62,904.15,954.81,904.21,951.18,904.27Z" transform="translate(-510 -90)"/><path class="cls-20" d="M996.84,900.79c.9,8.68,1.35,13.17,2.25,21.51a4,4,0,0,0,1.38,3,5.15,5.15,0,0,0,3.63.54c2-.24,3-.37,5-.64.49,3.6.73,5.35,1.21,8.67-2.78.36-4.17.53-7,.85-9.36,1-14.41-2.55-15.13-11.43-.67-8.27-1-12.69-1.67-21.27-1.93.21-2.89.31-4.81.49-.24-3.68-.36-5.51-.61-9.12,1.88-.2,2.82-.3,4.7-.53-.35-4.31-.52-6.43-.86-10.51,3.89-.5,5.84-.77,9.72-1.37.46,4.09.69,6.23,1.15,10.57,3.52-.51,5.28-.78,8.79-1.36.47,3.66.71,5.53,1.18,9.28C1002.24,900,1000.44,900.3,996.84,900.79Z" transform="translate(-510 -90)"/><path class="cls-20" d="M1026,929.6a18,18,0,0,1-9.06-6.22,23.17,23.17,0,0,1-4.5-11.44,27.6,27.6,0,0,1,1-12.72,22.41,22.41,0,0,1,6.08-9.57,20.91,20.91,0,0,1,9.7-5A19.48,19.48,0,0,1,1040,885a20.15,20.15,0,0,1,9.11,6.39,28.36,28.36,0,0,1,5.63,11.69,24.35,24.35,0,0,1,0,12.66,18.57,18.57,0,0,1-6.13,9.34A25.91,25.91,0,0,1,1026,929.6Zm15.1-11a10.21,10.21,0,0,0,3.11-5.23,16.29,16.29,0,0,0-.08-7.6c-.93-4.31-2.65-7.44-5.13-9.32a9.34,9.34,0,0,0-8-1.85,9.84,9.84,0,0,0-6.63,5c-1.57,2.73-2,6.26-1.33,10.55s2.24,7.32,4.65,9.16a9.82,9.82,0,0,0,8.23,1.83A11,11,0,0,0,1041.11,918.58Z" transform="translate(-510 -90)"/><path class="cls-20" d="M1087.49,869.43a13.13,13.13,0,0,1,5.93-4.56c1.73,4.56,2.6,6.94,4.33,11.69l-2.54,1c-3,1.19-5,2.89-6,5.16s-.82,5.52.56,9.65c3,8.9,4.43,13.32,7.38,20.58-4.24,1.53-6.37,2.26-10.65,3.66-4.94-14.39-9.28-28.94-13.7-43.5,3.82-1.28,5.73-1.93,9.51-3.29.92,2.71,1.38,4.1,2.31,6.89A16.67,16.67,0,0,1,1087.49,869.43Z" transform="translate(-510 -90)"/><path class="cls-20" d="M1145.28,870.36c-9,5.25-18.5,10.13-28,14.46,1.54,3,3.55,4.84,6.07,5.66a9.87,9.87,0,0,0,7.65-.73c3.73-1.85,5.59-4.76,5.51-8.82,4.22-2.23,6.32-3.38,10.49-5.76a18.56,18.56,0,0,1-1.56,12.61c-2,4-5.47,7.19-10.31,9.59a24.24,24.24,0,0,1-11.69,2.76,17.18,17.18,0,0,1-10.37-3.79,23.78,23.78,0,0,1-7.12-10.38,31.47,31.47,0,0,1-2.21-13.1,21.55,21.55,0,0,1,3.37-10.77,20.27,20.27,0,0,1,8.25-7.14,19.34,19.34,0,0,1,10.28-2.12,18.9,18.9,0,0,1,9.91,3.85,27.88,27.88,0,0,1,7.91,9.53A31.09,31.09,0,0,1,1145.28,870.36Zm-13.12-1.78a9.88,9.88,0,0,0-5.78-5.3,9.35,9.35,0,0,0-7.31.61,9.24,9.24,0,0,0-4.76,5.28,13.45,13.45,0,0,0-.06,8.28C1121.5,874.12,1125.08,872.35,1132.16,868.58Z" transform="translate(-510 -90)"/><path class="cls-20" d="M1172.48,863.56q-4.8-18-10.68-35.71c3.53-2.54,5.28-3.84,8.75-6.5,5.16,15.2,9.55,30.68,13.24,46.3-4.67,3.26-7,4.84-11.77,7.91-13.34-8.56-24.92-19.87-36.37-30.73,3.74-2.19,5.59-3.31,9.27-5.63C1153.85,847.61,1162.82,856,1172.48,863.56Z" transform="translate(-510 -90)"/><path class="cls-20" d="M1171.18,811.67a6.51,6.51,0,0,1-4.23-2.47,5.94,5.94,0,0,1-1.45-4.43,5.62,5.62,0,0,1,2.2-4,6.12,6.12,0,0,1,8.68.69,6.21,6.21,0,0,1,1.65,4.57,6.1,6.1,0,0,1-6.85,5.61Zm11.94-.41c9.6,11.64,19.13,23.3,29.08,34.64-3.65,3.05-5.5,4.55-9.22,7.49-9.56-11.66-18.67-23.64-27.86-35.6C1178.35,815.23,1180,813.92,1183.12,811.26Z" transform="translate(-510 -90)"/><path class="cls-20" d="M1238.48,795.36c-7.67,8.09-15.41,15.86-23.48,23.54a10.81,10.81,0,0,0,7.84,3.17,11.16,11.16,0,0,0,7.44-3.38c3.15-3.06,4.08-6.47,2.71-10.26,3.53-3.6,5.28-5.43,8.73-9.15a17.5,17.5,0,0,1,2.47,12.48c-.75,4.51-3.23,8.77-7.32,12.75A27.16,27.16,0,0,1,1226,831.2a18.76,18.76,0,0,1-11.55,0,23.24,23.24,0,0,1-10.34-7.26,29.23,29.23,0,0,1-6.33-11.44,20.7,20.7,0,0,1-.13-11.25,21.4,21.4,0,0,1,5.85-9.6,21.81,21.81,0,0,1,9.56-5.65,20.81,20.81,0,0,1,11.18,0,27.75,27.75,0,0,1,11,6.07A29.28,29.28,0,0,1,1238.48,795.36Zm-13.78,3a10.11,10.11,0,0,0-7.49-2.87,10.63,10.63,0,0,0-7.09,3.18,9.54,9.54,0,0,0-3,6.62,12.45,12.45,0,0,0,2.58,7.76C1215.8,807.39,1218.81,804.46,1224.7,798.39Z" transform="translate(-510 -90)"/><path class="cls-20" d="M1259.82,723.57c11.23,11.16,22.08,22.73,32.42,34.72-3.11,4.44-4.7,6.64-7.92,11-10.83-2.81-21.25-6.8-31.69-10.75,7,8.22,14,16.45,20.69,25-3.37,4.19-5.09,6.26-8.57,10.33-15.32-4.72-29.9-11.84-44.32-18.73,2.9-3.23,4.33-4.87,7.16-8.19,11,5.48,22,11,33.25,15.75q-11.29-14.26-23.26-28c2.85-3.62,4.25-5.46,7-9.19,11.61,4.45,23.24,8.87,35.11,12.59q-12.64-13.06-25.84-25.58C1256.28,729,1257.47,727.17,1259.82,723.57Z" transform="translate(-510 -90)"/><path class="cls-20" d="M1305.31,736.31a6.08,6.08,0,0,1-5.23-.17,5.53,5.53,0,0,1-3-4,7.58,7.58,0,0,1,1.17-5.59,8.56,8.56,0,0,1,4.54-3.78,6.86,6.86,0,0,1,5.36.17,5.06,5.06,0,0,1,3,3.8,7.66,7.66,0,0,1-1.26,5.51A9.43,9.43,0,0,1,1305.31,736.31Zm-46.14-36c12.21,6.26,24.25,12.84,36.32,19.35-2.11,3.55-3.18,5.31-5.36,8.79-12.36-6-24.65-12.18-37.09-18C1255.53,706.46,1256.76,704.44,1259.17,700.34Z" transform="translate(-510 -90)"/></g></g></svg>