<svg xmlns="http://www.w3.org/2000/svg" enable-background="new 0 0 32 32" viewBox="0 0 32 32"><path d="M30.21997,11.37l-8.89996-1.29004l-3.97003-8.06C17.09003,1.51001,16.57001,1.19,16,1.19s-1.09003,0.32001-1.34998,0.82996l-3.97003,8.06L1.78003,11.37C1.21997,11.45001,0.75,11.84998,0.57001,12.39001c-0.16998,0.54999-0.03003,1.13995,0.38,1.53998l6.44,6.27002L5.87,29.06C5.77002,29.62,6,30.19,6.46997,30.52997c0.46002,0.33002,1.07001,0.38,1.58002,0.11005L16,26.45996l7.95001,4.18005c0.21997,0.12,0.45996,0.16998,0.70001,0.16998c0.31,0,0.62-0.09003,0.88-0.28003C26,30.19,26.22998,29.62,26.13,29.06l-1.52002-8.85999l6.44-6.27002c0.41003-0.40002,0.54999-0.98999,0.38-1.53998C31.25,11.84998,30.78003,11.45001,30.21997,11.37z"/></svg>